PathFileType	4	(X/Y/Z)	P:\Projects\LMB_grand_challenge_database\project_only\opensim\experimental_data\SixthCompetition/DM_ngait_og4_new.trc
DataRate	CameraRate	NumFrames	NumMarkers	Units	OrigDataRate	OrigDataStartFrame	OrigNumFrames
120	120	5	68	mm	120	93	374
Frame#	Time	Sternum			Neck			R_Shoulder			L_Shoulder			Xiphoid			Thoracic			R_Asis			L_Asis			R_Psis			L_Psis			Lumbar			R_Elbow			R_ElbowMedial			R_ShoulderAnterior			R_ShoulderPosterior			R_Wrist			R_Radius			R_Ulna			L_Elbow			L_ElbowMedial			L_ShoulderAnterior			L_ShoulderPosterior			L_Wrist			L_Ulna			L_Radius			L_Thigh_Superior			L_Thigh_Inferior			L_Thigh_Lateral			L_Knee_Lateral			L_Knee_Medial			L_Patella			L_Shank_Superior			L_Shank_Inferior			L_Shank_Lateral			L_Ankle_Lateral			L_Ankle_Medial			R_Thigh_Superior			R_Thigh_Inferior			R_Thigh_Lateral			R_Knee_Lateral			R_Knee_Medial			R_Patella			R_Shank_Superior			R_Shank_Inferior			R_Shank_Lateral			R_Ankle_Lateral			RankleMedial			R_Heel			R_Toe			R_Midfoot_Medial			R_Midfoot_Lateral			R_Hindfoot			R_Midfoot_Superior			R_ToeMedial			R_ToeLateral			L_Heel			L_Toe			L_Midfoot_Medial			L_Midfoot_Lateral			L_Hindfoot			L_Midfoot_Superior			L_ToeMedial			L_ToeLateral			Oglobal			Sacral			Xglobal			Yglobal			Zglobal			
		X1	Y1	Z1	X2	Y2	Z2	X3	Y3	Z3	X4	Y4	Z4	X5	Y5	Z5	X6	Y6	Z6	X7	Y7	Z7	X8	Y8	Z8	X9	Y9	Z9	X10	Y10	Z10	X11	Y11	Z11	X12	Y12	Z12	X13	Y13	Z13	X14	Y14	Z14	X15	Y15	Z15	X16	Y16	Z16	X17	Y17	Z17	X18	Y18	Z18	X19	Y19	Z19	X20	Y20	Z20	X21	Y21	Z21	X22	Y22	Z22	X23	Y23	Z23	X24	Y24	Z24	X25	Y25	Z25	X26	Y26	Z26	X27	Y27	Z27	X28	Y28	Z28	X29	Y29	Z29	X30	Y30	Z30	X31	Y31	Z31	X32	Y32	Z32	X33	Y33	Z33	X34	Y34	Z34	X35	Y35	Z35	X36	Y36	Z36	X37	Y37	Z37	X38	Y38	Z38	X39	Y39	Z39	X40	Y40	Z40	X41	Y41	Z41	X42	Y42	Z42	X43	Y43	Z43	X44	Y44	Z44	X45	Y45	Z45	X46	Y46	Z46	X47	Y47	Z47	X48	Y48	Z48	X49	Y49	Z49	X50	Y50	Z50	X51	Y51	Z51	X52	Y52	Z52	X53	Y53	Z53	X54	Y54	Z54	X55	Y55	Z55	X56	Y56	Z56	X57	Y57	Z57	X58	Y58	Z58	X59	Y59	Z59	X60	Y60	Z60	X61	Y61	Z61	X62	Y62	Z62	X63	Y63	Z63	X64	Y64	Z64	X65	Y65	Z65	X66	Y66	Z66	X67	Y67	Z67	X68	Y68	Z68	

94	3	-569.835	1376.64	88.1609	-737.942	1454.41	81.9918	-645.455	1413.95	259.166	-649.004	1425.03	-85.83069999999999	-554.775	1209.47	95.1584	-832.617	1269.11	72.63420000000001	-661.744	977.8440000000001	220.076	-622.546	988.35	-46.15	-849.934	1019.76	91.2205	-841.024	1018	13.2243	-842.624	1068.09	54.8715	-725.234	1108.96	363.715	-0	0	0	-0	0	0	-0	0	0	-672.889	833.896	363.374	-666.322	839.966	320.758	-720.326	839.9	369.854	-548.659	1108.11	-181.964	-0	0	0	-0	0	0	-0	0	0	-352.007	929.605	-138.521	-392.487	911.484	-154.399	-366.079	948.042	-96.18680000000001	-714.319	805.388	-84.2604	-737.7	586.434	-32.365	-674.687	669.154	-7.32065	-0	0	0	-0	0	0	-733.395	494.551	32.455	-808.9299999999999	441.206	-41.1167	-897.178	183.122	-39.156	-827.33	297.489	33.2457	-0	0	0	-0	0	0	-727.898	791.8680000000001	252.748	-622.7430000000001	600.36	232.909	-611.62	740.848	251.227	-0	0	0	-0	0	0	-500.595	546.689	191.078	-587.739	404.402	251.093	-503.102	211.289	251.992	-476.453	353.515	189.778	-0	0	0	-0	0	0	-515.071	61.2017	191.98	-237.743	156.015	249.762	-291.493	113.59	182.795	-320.366	97.51819999999999	295.313	-419.451	58.0829	262.626	-385.856	170.539	227.278	-256.936	135.836	201.029	-277.746	124.369	289.484	-999.155	67.6889	12.9653	-699.069	52.4391	12.1185	-782.171	33.5122	66.9799	-791.664	30.4711	-47.0673	-897.152	28.678	-41.335	-831.4299999999999	119.936	9.8123	-736.324	35.0241	55.0542	-735.71	35.4931	-39.4265	-0	0	0	-845.479	1018.88	52.2224	-200	0	0	-0	0	200	-0	200	0	
95	3.008333	-561.573	1375.03	89.3768	-729.422	1452.88	83.2761	-636.926	1412.43	260.298	-640.116	1423.56	-84.37390000000001	-546.418	1207.86	96.1431	-824.384	1267.61	74.1073	-652.89	976.351	221.131	-613.917	987.298	-45.4155	-841.226	1018.05	92.4114	-832.355	1016.41	14.3676	-834.0839999999999	1066.46	56.0634	-717.509	1107.33	364.863	-0	0	0	-0	0	0	-0	0	0	-665.21	832.383	364.182	-658.527	838.424	321.582	-712.718	838.401	370.881	-536.369	1107.61	-178.988	-0	0	0	-0	0	0	-0	0	0	-337.641	931.985	-133.615	-377.905	913.266	-149.662	-352.232	950.346	-91.4457	-707.088	804.275	-83.408	-733.083	585.789	-32.4598	-669.295	668.001	-7.63052	-0	0	0	-0	0	0	-729.982	493.243	32.4852	-805.877	441.071	-41.0523	-896.3099999999999	183.623	-39.0547	-825.365	297.29	33.289	-0	0	0	-0	0	0	-720.354	790.145	253.575	-614.677	598.554	233.362	-603.697	738.84	251.758	-0	0	0	-0	0	0	-493.363	545.984	189.883	-576.39	402.467	252.19	-486.471	211.628	253.886	-464.418	353.743	190.377	-0	0	0	-0	0	0	-495.563	60.4951	195.607	-219.628	162.856	247.231	-273.538	118.218	181.857	-300.004	102.65	295.036	-398.782	60.6923	264.337	-368.41	173.37	227.462	-239.632	142.144	197.937	-257.988	130.584	288.068	-999.081	68.20189999999999	13.0838	-698.9640000000001	52.1837	12.1406	-782.167	33.484	67.032	-791.759	30.1291	-46.9981	-896.86	28.7086	-41.2645	-831	119.952	9.637689999999999	-736.263	34.8892	55.0984	-735.546	35.2587	-39.4933	-0	0	0	-836.7910000000001	1017.23	53.3895	-200	0	0	-0	0	200	-0	200	0	
96	3.016667	-553.152	1373.34	90.6052	-720.9930000000001	1451.39	84.4808	-628.22	1410.68	261.692	-631.253	1422.04	-83.0641	-537.796	1206.46	96.9795	-816.014	1266.06	75.5804	-643.706	974.779	221.857	-605.55	986.077	-44.6947	-832.521	1016.16	93.7397	-823.889	1014.59	15.733	-825.604	1064.61	57.4548	-709.821	1105.89	366.157	-0	0	0	-0	0	0	-0	0	0	-657.525	830.8150000000001	364.983	-650.771	836.966	322.373	-704.783	836.885	371.358	-524.436	1107.2	-176.104	-0	0	0	-0	0	0	-0	0	0	-323.716	934.1799999999999	-128.735	-363.564	914.772	-144.729	-339.002	952.027	-86.8028	-699.97	803.657	-83.02079999999999	-728.224	585.106	-32.2435	-664.245	666.402	-7.35107	-0	0	0	-0	0	0	-726.037	491.809	32.4026	-802.417	440.944	-40.6795	-895.104	184.187	-39.1394	-823.157	297.144	33.1964	-0	0	0	-0	0	0	-711.62	788.847	253.484	-606.29	596.872	234.195	-595.09	737.101	252.208	-0	0	0	-0	0	0	-485.595	545.454	188.952	-564.954	400.945	253.259	-470.963	211.767	255.424	-453.065	353.851	190.73	-0	0	0	-0	0	0	-477.579	59.7396	198.557	-203.558	168.985	244.871	-257.146	122.278	180.822	-281.526	107.244	294.541	-380.042	62.8748	265.553	-352.506	175.765	227.365	-223.822	147.209	196.192	-240.407	136.189	286.696	-998.725	68.82599999999999	13.0116	-698.795	51.8972	12.0601	-781.92	33.5395	67.0307	-791.524	29.9774	-46.992	-896.744	28.8657	-41.251	-830.574	120.013	9.458909999999999	-735.914	34.7232	54.9277	-735.4880000000001	35.0469	-39.5131	-0	0	0	-828.205	1015.38	54.7363	-200	0	0	-0	0	200	-0	200	0	
97	3.025	-544.741	1371.68	91.91930000000001	-712.3579999999999	1449.79	85.8061	-619.951	1409.07	263.198	-622.477	1420.68	-81.5865	-529.35	1204.81	97.9659	-807.515	1264.43	77.074	-634.559	973.427	223.08	-597.051	984.673	-43.7755	-823.741	1014.3	95.3381	-815.271	1012.79	17.274	-817.033	1062.79	58.9747	-701.807	1104.15	367.524	-0	0	0	-0	0	0	-0	0	0	-649.5890000000001	829.12	365.744	-642.8579999999999	835.1900000000001	322.968	-696.978	835.035	372.25	-512.6319999999999	1106.43	-172.96	-0	0	0	-0	0	0	-0	0	0	-310.137	936.03	-123.727	-349.543	915.897	-139.872	-325.827	953.975	-81.9534	-692.7910000000001	802.776	-82.2996	-723.456	584.688	-32.2128	-658.772	665.063	-6.88921	-0	0	0	-0	0	0	-721.479	490.413	32.5084	-798.881	440.741	-40.2358	-894.126	184.982	-39.1034	-820.653	296.892	33.1383	-0	0	0	-0	0	0	-703.263	787.006	254.645	-597.059	595.528	234.755	-585.654	735.6420000000001	252.528	-0	0	0	-0	0	0	-477.371	544.5	188.08	-553.8440000000001	399.534	254.587	-456.924	211.738	256.405	-441.488	353.626	190.851	-0	0	0	-0	0	0	-461.305	58.9252	200.486	-188.838	173.536	242.944	-242.551	126.015	179.005	-264.651	110.434	293.116	-362.724	64.01260000000001	265.805	-338.255	177.428	227.208	-209.405	151.129	194.562	-224.729	140.185	285.355	-998.393	69.5889	12.9526	-698.662	51.7333	12.0516	-781.748	33.3349	66.9718	-791.374	29.7786	-47.0492	-896.575	29.125	-41.324	-830.005	120.012	9.37363	-736.491	34.6156	55.293	-735.313	34.8528	-39.3925	-0	0	0	-819.506	1013.54	56.3061	-200	0	0	-0	0	200	-0	200	0	
98	3.033333	-536.155	1370.03	93.4148	-704.061	1448.2	87.3954	-611.365	1407.1	264.653	-613.745	1419.05	-80.0561	-520.665	1203.19	98.9937	-798.9690000000001	1262.78	78.6357	-625.355	971.896	224.32	-588.288	983.591	-42.8526	-814.827	1012.26	96.8407	-806.439	1010.83	18.8321	-808.393	1060.81	60.4829	-693.902	1102.44	368.845	-0	0	0	-0	0	0	-0	0	0	-641.223	827.255	366.41	-634.521	833.596	323.689	-688.799	833.196	372.939	-501.098	1105.48	-169.641	-0	0	0	-0	0	0	-0	0	0	-296.945	937.956	-118.929	-335.728	916.928	-135.042	-312.867	955.436	-77.41459999999999	-684.7329999999999	801.237	-80.9901	-717.807	583.711	-31.4343	-652.526	663.633	-6.06509	-0	0	0	-0	0	0	-717.0940000000001	488.888	32.8819	-794.923	440.349	-39.8084	-892.576	185.499	-39.0196	-817.894	296.553	32.9999	-0	0	0	-0	0	0	-694.261	785.775	256.039	-587.356	594.2329999999999	235.62	-575.585	734.391	252.876	-0	0	0	-0	0	0	-468.547	543.604	187.174	-542.088	398.073	255.55	-443.832	211.313	257.136	-430.735	353.132	190.873	-0	0	0	-0	0	0	-446.718	57.9235	201.523	-175.907	176.245	241.559	-229.214	128.237	177.772	-249.879	112.296	292.102	-347.592	64.16160000000001	265.902	-325.308	178.065	226.971	-196.279	153.458	193.33	-210.885	142.434	284.39	-998.03	70.5967	12.9131	-698.423	51.4138	11.9932	-781.615	33.2895	67.13809999999999	-791.206	29.4791	-46.8778	-896.298	29.2997	-41.3208	-829.397	120.067	9.28326	-736.45	34.5213	55.4284	-735.245	34.7135	-39.4134	-0	0	0	-810.633	1011.55	57.8364	-200	0	0	-0	0	200	-0	200	0	
